<?xml version="1.0" encoding="utf-8"?>
<!-- Generator: Adobe Illustrator 19.0.0, SVG Export Plug-In . SVG Version: 6.00 Build 0)  -->
<svg version="1.1" id="Layer_1" xmlns="http://www.w3.org/2000/svg" xmlns:xlink="http://www.w3.org/1999/xlink" x="0px" y="0px"
	 viewBox="131 -131 512 512" style="enable-background:new 131 -131 512 512;" xml:space="preserve">
<g id="XMLID_2_">
	<path id="XMLID_8_" d="M157.5-131c-14.6,0-26.5,11.9-26.5,26.5v34.1v390.8v34.1c0,14.6,11.9,26.5,26.5,26.5h34.1h390.8h34.1
		c15.4,0,26.5-11.9,26.5-26.5v-34.1V-70.4v-34.1c0-15.4-11.9-26.5-26.5-26.5h-34.1H191.6H157.5z M188.2-73.8h398.5v398.5H188.2
		V-73.8z M316.2,2.1c-23.9,0-42.7,18.8-42.7,42.7s18.8,42.7,42.7,42.7c23.9,0,42.7-18.8,42.7-42.7S339.2,2.1,316.2,2.1z
		 M457.8,162.5c-23.9,0-42.7,18.8-42.7,42.7c0,23.9,18.8,42.7,42.7,42.7s42.7-18.8,42.7-42.7C500.5,182.2,481.7,162.5,457.8,162.5z"
		/>
</g>
</svg>
